<?xml version="1.0" encoding="UTF-8"?><svg id="Layer_1" xmlns="http://www.w3.org/2000/svg" viewBox="0 0 27 27"><defs><style>.cls-1{fill:#ffd600;}</style></defs><path class="cls-1" d="M5.98,25.49c-.1-.23-.05-.47,.14-.73,.12-.15,.29-.35,.5-.6s.43-.52,.66-.83,.43-.6,.61-.88c.04-.08,.05-.15,.03-.22s-.08-.12-.15-.17c-.99-.53-1.83-1.16-2.53-1.9s-1.24-1.54-1.61-2.42-.56-1.8-.56-2.77c0-1.16,.27-2.25,.81-3.27,.54-1.02,1.28-1.91,2.24-2.68,.95-.77,2.06-1.37,3.33-1.8,1.26-.43,2.62-.65,4.07-.65s2.81,.22,4.07,.65c1.26,.43,2.38,1.03,3.33,1.8s1.7,1.66,2.24,2.68,.8,2.11,.8,3.27c0,.97-.17,1.88-.53,2.73-.35,.85-.86,1.62-1.51,2.31s-1.44,1.29-2.36,1.79c-.92,.5-1.94,.89-3.08,1.16-1.13,.27-2.35,.41-3.66,.41-.04,0-.09,0-.15,0-.06,0-.11,0-.17-.01-.07,0-.14,.01-.22,.04s-.15,.07-.24,.13c-.4,.29-.86,.57-1.36,.84s-1.01,.52-1.51,.74-.98,.4-1.42,.53-.79,.19-1.06,.19c-.37,0-.6-.11-.7-.34Z"/><path class="cls-1" d="M22.24,6.85s-.08-.1-.09-.17c-.05-.33-.1-.62-.15-.86-.05-.24-.12-.45-.19-.62s-.17-.31-.28-.42-.25-.21-.42-.28c-.17-.07-.37-.13-.61-.18-.24-.05-.52-.1-.84-.14-.07,0-.13-.04-.18-.08-.04-.05-.07-.11-.07-.17s.02-.13,.07-.17c.05-.05,.1-.08,.17-.09,.39-.04,.72-.09,.99-.15,.27-.06,.49-.14,.66-.24,.17-.1,.31-.24,.42-.42,.11-.18,.19-.4,.26-.67s.12-.61,.18-1.01c.01-.07,.04-.13,.09-.17s.1-.06,.17-.06,.12,.02,.17,.06,.08,.1,.09,.17c.06,.4,.12,.74,.18,1.01s.15,.5,.26,.67,.25,.31,.42,.42c.17,.1,.39,.19,.66,.24s.59,.11,.99,.15c.07,.01,.13,.04,.17,.09,.05,.05,.07,.11,.07,.17s-.02,.13-.07,.17c-.05,.05-.11,.08-.18,.08-.39,.04-.72,.1-.98,.15s-.49,.14-.66,.25c-.17,.1-.31,.24-.42,.42-.1,.18-.19,.4-.25,.67s-.12,.61-.18,1.01c-.01,.07-.04,.13-.09,.17-.05,.04-.1,.06-.17,.06s-.12-.02-.17-.06Z"/></svg>