<?xml version="1.0" encoding="UTF-8"?><svg id="Layer_1" xmlns="http://www.w3.org/2000/svg" viewBox="0 0 27 27"><defs><style>.cls-1{fill:#999;}</style></defs><path class="cls-1" d="M21.42,9.47c-.06-.74-.13-1.42-.23-2.03-.09-.62-.19-1.18-.31-1.66-.13-.62-.36-1.18-.66-1.65-.29-.47-.67-.85-1.14-1.14-.46-.29-1-.47-1.64-.55-.33-.04-.85-.09-1.55-.12-.69-.04-1.5-.07-2.39-.07s-1.7,.02-2.4,.07c-.69,.03-1.22,.08-1.54,.12-.64,.08-1.18,.26-1.65,.55-.46,.29-.84,.67-1.14,1.14-.29,.47-.51,1.03-.65,1.65-.12,.48-.23,1.04-.32,1.66-.1,.61-.17,1.29-.22,2.03-.06,.74-.08,1.52-.08,2.33v6.67c0,.59,.11,1.12,.33,1.55,.22,.45,.55,.78,.97,1.04,.42,.25,.94,.37,1.54,.37h.15l-1.97,3.16c-.08,.13-.11,.28-.1,.41s.08,.25,.17,.35c.1,.09,.23,.13,.4,.13h.56c.27,0,.47-.11,.61-.36l.5-.81h9.64l.51,.81c.15,.25,.35,.36,.61,.36h.52c.16,0,.29-.04,.39-.15,.1-.09,.16-.21,.18-.36,.02-.13-.02-.28-.11-.42l-1.94-3.12h.19c.6,0,1.12-.12,1.54-.37,.42-.26,.75-.59,.97-1.04,.22-.44,.33-.96,.33-1.55v-6.67c0-.81-.02-1.6-.08-2.33ZM10.69,4.29c.11-.12,.27-.18,.46-.18h4.7c.19,0,.35,.06,.46,.18,.12,.11,.18,.26,.18,.45s-.06,.35-.18,.47c-.11,.11-.27,.17-.46,.17h-4.7c-.19,0-.35-.06-.46-.17-.11-.12-.17-.28-.17-.47s.06-.33,.17-.45Zm-2.4,14.75c-.25-.23-.37-.54-.37-.91s.12-.67,.37-.9c.23-.23,.54-.35,.89-.35s.68,.11,.91,.35c.25,.23,.37,.54,.37,.9s-.12,.68-.37,.91c-.25,.25-.55,.36-.91,.36s-.66-.11-.89-.36Zm1.31,3.77l.86-1.37h6.05l.86,1.37h-7.77Zm9.1-3.77c-.25,.25-.55,.37-.9,.37s-.67-.12-.91-.37-.37-.55-.37-.91,.12-.66,.37-.9c.25-.23,.56-.36,.91-.36s.67,.12,.9,.36,.37,.55,.37,.9-.12,.67-.37,.91Zm.66-4.99c0,.28-.07,.5-.2,.68-.13,.18-.35,.29-.62,.31-.69,.08-1.48,.13-2.38,.18-.89,.03-1.77,.06-2.66,.06-1.08-.01-2.08-.03-2.97-.08-.89-.04-1.58-.09-2.08-.16-.29-.03-.5-.15-.62-.32-.13-.18-.2-.4-.2-.67v-2.2c0-.6,.02-1.16,.06-1.68,.04-.52,.08-.98,.13-1.37,.06-.39,.1-.68,.14-.89,.06-.21,.15-.4,.28-.55,.13-.15,.31-.22,.52-.26,.5-.07,1.13-.11,1.85-.15,.73-.03,1.68-.06,2.88-.06s2.15,.02,2.88,.06c.71,.03,1.32,.08,1.82,.15,.22,.03,.4,.11,.55,.26,.13,.15,.22,.33,.28,.55,.04,.21,.09,.5,.15,.89,.06,.39,.1,.85,.13,1.37,.03,.52,.06,1.08,.06,1.68v2.2Z"/></svg>