<?xml version="1.0" encoding="UTF-8"?><svg id="Layer_1" xmlns="http://www.w3.org/2000/svg" viewBox="0 0 27 27"><defs><style>.cls-1{fill:#999;}</style></defs><path class="cls-1" d="M4.64,19.64c.63,.83,2.22,2.11,2.9,2.52,.12,.07,.16,.26,.08,.39-.38,.59-.8,1.1-1.32,1.74-.14,.18-.59,.67-.42,1.08,.14,.33,.59,.56,1.4,.42,.95-.17,1.8-.57,2.65-1.01,.66-.34,1.29-.75,1.95-1.1,.1-.06,.24-.1,.36-.09,2.09,.18,4.12-.08,6.05-.91,2.35-1.01,4.19-2.57,5.12-4.95,.96-2.43,.62-4.73-.89-6.86-1.37-1.96-3.31-3.14-5.61-3.82-1.11-.32-2.25-.46-3.35-.47-2.44,.01-4.66,.6-6.64,1.91-1.84,1.24-3.17,2.86-3.66,5.04-.51,2.24,.02,4.27,1.39,6.11Z"/></svg>