<?xml version="1.0" encoding="UTF-8"?><svg id="Layer_1" xmlns="http://www.w3.org/2000/svg" viewBox="0 0 27 27"><defs><style>.cls-1{fill:#ffd600;}</style></defs><path class="cls-1" d="M22.24,6.85s-.08-.1-.09-.17c-.05-.33-.1-.62-.15-.86-.05-.24-.12-.45-.19-.62s-.17-.31-.28-.42-.25-.21-.42-.28c-.17-.07-.37-.13-.61-.18-.24-.05-.52-.1-.84-.14-.07,0-.13-.04-.18-.08-.04-.05-.07-.11-.07-.17s.02-.13,.07-.17c.05-.05,.1-.08,.17-.09,.39-.04,.72-.09,.99-.15,.27-.06,.49-.14,.66-.24,.17-.1,.31-.24,.42-.42,.11-.18,.19-.4,.26-.67s.12-.61,.18-1.01c.01-.07,.04-.13,.09-.17s.1-.06,.17-.06,.12,.02,.17,.06,.08,.1,.09,.17c.06,.4,.12,.74,.18,1.01s.15,.5,.26,.67,.25,.31,.42,.42c.17,.1,.39,.19,.66,.24s.59,.11,.99,.15c.07,.01,.13,.04,.17,.09,.05,.05,.07,.11,.07,.17s-.02,.13-.07,.17c-.05,.05-.11,.08-.18,.08-.39,.04-.72,.1-.98,.15s-.49,.14-.66,.25c-.17,.1-.31,.24-.42,.42-.1,.18-.19,.4-.25,.67s-.12,.61-.18,1.01c-.01,.07-.04,.13-.09,.17-.05,.04-.1,.06-.17,.06s-.12-.02-.17-.06Z"/><path class="cls-1" d="M4.64,19.64c.63,.83,2.22,2.11,2.9,2.52,.12,.07,.16,.26,.08,.39-.38,.59-.8,1.1-1.32,1.74-.14,.18-.59,.67-.42,1.08,.14,.33,.59,.56,1.4,.42,.95-.17,1.8-.57,2.65-1.01,.66-.34,1.29-.75,1.95-1.1,.1-.06,.24-.1,.36-.09,2.09,.18,4.12-.08,6.05-.91,2.35-1.01,4.19-2.57,5.12-4.95,.96-2.43,.62-4.73-.89-6.86-1.37-1.96-3.31-3.14-5.61-3.82-1.11-.32-2.25-.46-3.35-.47-2.44,.01-4.66,.6-6.64,1.91-1.84,1.24-3.17,2.86-3.66,5.04-.51,2.24,.02,4.27,1.39,6.11Z"/></svg>