<?xml version="1.0" encoding="UTF-8"?>
<svg width="22px" height="19px" viewBox="0 0 22 19" version="1.1" xmlns="http://www.w3.org/2000/svg" xmlns:xlink="http://www.w3.org/1999/xlink">
    <title>taxiOn</title>
    <g id="Test-Flight" stroke="none" stroke-width="1" fill="none" fill-rule="evenodd">
        <g id="택시팟-불러오는-중" transform="translate(-116.000000, -182.000000)" fill="#FFD600" fill-rule="nonzero">
            <g id="Group" transform="translate(116.000000, 179.000000)">
                <g id="taxiOn" transform="translate(0.000000, 3.000000)">
                    <path d="M21.66,10.64 C21.59,10.25 21.48,9.88 21.31,9.53 C21.15,9.19 20.92,8.83 20.63,8.46 L19.83,7.46 C19.73,6.92 19.59,6.38 19.44,5.85 C19.29,5.33 19.13,4.85 18.98,4.43 C18.83,4.01 18.7,3.68 18.6,3.47 C18.34,2.94 17.98,2.52 17.51,2.2 C17.04,1.88 16.49,1.69 15.87,1.61 C15.65,1.58 15.31,1.55 14.83,1.54 C14.75,1.54 14.67,1.53 14.57,1.53 L14,0.41 C13.87,0.15 13.6,0 13.31,0 L8.35,0 C8.04,0 7.77,0.17 7.64,0.46 L7.17,1.53 C7.09,1.53 7.02,1.54 6.94,1.54 C6.46,1.56 6.11,1.58 5.9,1.61 C5.27,1.68 4.73,1.89 4.26,2.2 C3.79,2.52 3.43,2.94 3.18,3.47 C3.08,3.69 2.94,4.01 2.8,4.43 C2.65,4.85 2.49,5.32 2.34,5.85 C2.18,6.38 2.04,6.92 1.93,7.46 L1.14,8.46 C0.85,8.83 0.63,9.19 0.46,9.53 C0.3,9.88 0.18,10.25 0.11,10.64 C0.04,11.04 0,11.5 0,12.04 L0,17.37 C0,17.71 0.12,18 0.35,18.23 C0.59,18.47 0.88,18.59 1.23,18.59 L2.3,18.59 C2.65,18.59 2.94,18.47 3.17,18.23 C3.4,17.99 3.53,17.71 3.53,17.37 L3.53,15.81 C3.59,15.81 3.64,15.82 3.7,15.82 C4.39,15.86 5.13,15.9 5.95,15.93 C6.76,15.96 7.59,15.98 8.44,16 C9.29,16.02 10.1,16.03 10.87,16.03 C11.64,16.03 12.45,16.02 13.3,16 C14.15,15.98 14.98,15.96 15.79,15.93 C16.61,15.9 17.36,15.86 18.04,15.82 C18.1,15.82 18.16,15.81 18.22,15.81 L18.22,17.37 C18.22,17.71 18.34,18 18.57,18.23 C18.81,18.47 19.09,18.59 19.43,18.59 L20.52,18.59 C20.87,18.59 21.16,18.47 21.39,18.23 C21.63,17.99 21.74,17.71 21.74,17.37 L21.74,12.04 C21.74,11.51 21.71,11.04 21.63,10.64 L21.66,10.64 Z M5.38,13.09 C5.09,13.38 4.73,13.53 4.3,13.53 C3.87,13.53 3.5,13.38 3.22,13.09 C2.93,12.8 2.79,12.43 2.79,12.01 C2.79,11.59 2.93,11.22 3.22,10.93 C3.5,10.64 3.87,10.5 4.3,10.5 C4.73,10.5 5.09,10.64 5.38,10.93 C5.67,11.22 5.8,11.58 5.8,12.01 C5.8,12.44 5.67,12.8 5.38,13.09 Z M14.11,12.83 C13.92,13.04 13.65,13.14 13.33,13.14 L8.47,13.14 C8.14,13.14 7.87,13.04 7.68,12.83 C7.47,12.64 7.37,12.37 7.37,12.05 C7.37,11.73 7.47,11.47 7.68,11.26 C7.89,11.05 8.14,10.96 8.47,10.96 L13.33,10.96 C13.65,10.96 13.91,11.06 14.11,11.26 C14.32,11.47 14.42,11.73 14.42,12.05 C14.42,12.37 14.32,12.63 14.11,12.83 Z M15.79,7.1 C15.21,7.08 14.53,7.05 13.74,7.04 C12.94,7.02 12,7.01 10.9,7.01 C9.8,7.01 8.85,7.02 8.06,7.04 C7.27,7.05 6.59,7.08 6.02,7.1 C5.44,7.13 4.91,7.15 4.45,7.18 C4.24,7.19 4.11,7.15 4.03,7.06 C3.95,6.98 3.93,6.83 3.98,6.64 C4.04,6.34 4.12,6.02 4.23,5.69 C4.33,5.35 4.45,5.03 4.56,4.75 C4.67,4.46 4.77,4.24 4.85,4.07 C4.98,3.83 5.14,3.66 5.3,3.55 C5.47,3.44 5.69,3.37 5.97,3.32 C6.29,3.28 6.85,3.24 7.64,3.22 C8.44,3.2 9.53,3.19 10.91,3.19 C12.29,3.19 13.37,3.2 14.17,3.22 C14.97,3.24 15.53,3.27 15.86,3.32 C16.14,3.36 16.35,3.43 16.52,3.55 C16.68,3.66 16.83,3.84 16.96,4.07 C17.05,4.22 17.15,4.45 17.27,4.74 C17.37,5.04 17.48,5.35 17.58,5.69 C17.68,6.03 17.77,6.35 17.85,6.64 C17.9,6.83 17.88,6.98 17.8,7.06 C17.72,7.15 17.57,7.19 17.37,7.18 C16.91,7.15 16.39,7.13 15.81,7.1 L15.79,7.1 Z M18.57,13.09 C18.28,13.38 17.92,13.53 17.49,13.53 C17.06,13.53 16.71,13.38 16.42,13.09 C16.13,12.8 15.99,12.43 15.99,12.01 C15.99,11.59 16.13,11.22 16.42,10.93 C16.71,10.64 17.07,10.5 17.49,10.5 C17.91,10.5 18.28,10.64 18.57,10.93 C18.86,11.22 19,11.58 19,12.01 C19,12.44 18.86,12.8 18.57,13.09 Z" id="Shape"></path>
                </g>
            </g>
        </g>
    </g>
</svg>