<?xml version="1.0" encoding="UTF-8"?><svg id="Layer_1" xmlns="http://www.w3.org/2000/svg" viewBox="0 0 27 27"><defs><style>.cls-1{fill:#999;}</style></defs><path class="cls-1" d="M23.52,14.65c-.15-.21-.37-.34-.65-.4l-2.05-.49c-.07-.16-.12-.33-.19-.48-.07-.16-.12-.31-.19-.44l1.11-1.8c.15-.24,.22-.49,.2-.75-.02-.25-.13-.48-.34-.68l-1.26-1.25c-.2-.18-.42-.29-.66-.32-.24-.03-.48,.02-.72,.15l-1.83,1.13c-.13-.07-.27-.13-.44-.2-.15-.07-.32-.12-.49-.18l-.48-2.09c-.07-.27-.2-.49-.4-.66-.2-.16-.44-.25-.74-.25h-1.76c-.29,0-.53,.09-.74,.25-.2,.16-.33,.38-.4,.66l-.48,2.06c-.16,.05-.33,.12-.49,.19-.16,.07-.31,.13-.45,.2l-1.82-1.12c-.24-.13-.48-.19-.72-.15-.24,.02-.46,.13-.67,.33l-1.24,1.24c-.21,.2-.33,.43-.35,.68-.02,.25,.04,.51,.2,.75l1.1,1.8c-.07,.13-.12,.27-.19,.44-.07,.15-.12,.32-.18,.48l-2.04,.49c-.29,.05-.51,.19-.66,.4-.16,.2-.24,.44-.24,.72v1.72c0,.3,.08,.54,.24,.75,.15,.2,.37,.33,.66,.38l2.06,.49c.04,.15,.1,.31,.16,.46s.13,.3,.19,.45l-1.09,1.77c-.15,.24-.22,.49-.19,.76,.02,.27,.13,.51,.33,.7l1.23,1.23c.2,.2,.43,.31,.68,.33,.26,.02,.51-.04,.75-.19l1.8-1.09c.13,.07,.29,.12,.44,.19,.16,.05,.33,.12,.49,.18l.48,2.05c.07,.29,.2,.51,.4,.66,.21,.16,.45,.24,.74,.24h1.76c.3,0,.54-.08,.74-.24,.2-.15,.33-.37,.4-.66l.48-2.05c.16-.05,.33-.12,.49-.18,.15-.07,.31-.12,.44-.19l1.8,1.09c.24,.14,.48,.21,.75,.19,.25-.02,.48-.13,.68-.33l1.23-1.23c.21-.2,.32-.43,.34-.7,.03-.26-.04-.52-.2-.76l-1.1-1.77c.08-.15,.14-.3,.2-.45s.11-.31,.16-.46l2.08-.49c.27-.05,.49-.19,.65-.38,.16-.21,.24-.45,.24-.75v-1.72c0-.29-.08-.53-.24-.72Zm-7.1,3.25c-.31,.52-.71,.93-1.22,1.23-.52,.31-1.08,.46-1.7,.46s-1.18-.15-1.69-.46c-.52-.3-.92-.71-1.23-1.23-.3-.51-.45-1.08-.45-1.69s.15-1.19,.46-1.69c.3-.51,.71-.91,1.22-1.22,.52-.31,1.08-.46,1.69-.46s1.19,.15,1.7,.46c.51,.31,.91,.71,1.22,1.22,.3,.51,.45,1.07,.45,1.69s-.15,1.19-.45,1.69Z"/></svg>