<?xml version="1.0" encoding="UTF-8"?><svg id="Layer_1" xmlns="http://www.w3.org/2000/svg" viewBox="0 0 27 27"><defs><style>.cls-1{fill:#ffd600;}</style></defs><path class="cls-1" d="M24.27,17.56c-.07-.39-.18-.76-.35-1.11-.16-.34-.39-.7-.68-1.07l-.8-1c-.1-.54-.24-1.08-.39-1.61-.15-.52-.31-1-.46-1.42-.15-.42-.28-.75-.38-.96-.26-.53-.62-.95-1.09-1.27-.47-.32-1.02-.51-1.64-.59-.22-.03-.56-.06-1.04-.07-.08,0-.16-.01-.26-.01l-.57-1.12c-.13-.26-.4-.41-.69-.41h-4.96c-.31,0-.58,.17-.71,.46l-.47,1.07c-.08,0-.15,.01-.23,.01-.48,.02-.83,.04-1.04,.07-.63,.07-1.17,.28-1.64,.59-.47,.32-.83,.74-1.08,1.27-.1,.22-.24,.54-.38,.96-.15,.42-.31,.89-.46,1.42-.16,.53-.3,1.07-.41,1.61l-.79,1c-.29,.37-.51,.73-.68,1.07-.16,.35-.28,.72-.35,1.11-.07,.4-.11,.86-.11,1.4v5.33c0,.34,.12,.63,.35,.86,.24,.24,.53,.36,.88,.36h1.07c.35,0,.64-.12,.87-.36s.36-.52,.36-.86v-1.56c.06,0,.11,.01,.17,.01,.69,.04,1.43,.08,2.25,.11,.81,.03,1.64,.05,2.49,.07,.85,.02,1.66,.03,2.43,.03s1.58-.01,2.43-.03c.85-.02,1.68-.04,2.49-.07,.82-.03,1.57-.07,2.25-.11,.06,0,.12-.01,.18-.01v1.56c0,.34,.12,.63,.35,.86,.24,.24,.52,.36,.86,.36h1.09c.35,0,.64-.12,.87-.36,.24-.24,.35-.52,.35-.86v-5.33c0-.53-.03-1-.11-1.4Zm-16.28,2.45c-.29,.29-.65,.44-1.08,.44s-.8-.15-1.08-.44c-.29-.29-.43-.66-.43-1.08s.14-.79,.43-1.08c.28-.29,.65-.43,1.08-.43s.79,.14,1.08,.43,.42,.65,.42,1.08-.13,.79-.42,1.08Zm8.73-.26c-.19,.21-.46,.31-.78,.31h-4.86c-.33,0-.6-.1-.79-.31-.21-.19-.31-.46-.31-.78s.1-.58,.31-.79,.46-.3,.79-.3h4.86c.32,0,.58,.1,.78,.3,.21,.21,.31,.47,.31,.79s-.1,.58-.31,.78Zm1.68-5.73c-.58-.02-1.26-.05-2.05-.06-.8-.02-1.74-.03-2.84-.03s-2.05,.01-2.84,.03c-.79,.01-1.47,.04-2.04,.06-.58,.03-1.11,.05-1.57,.08-.21,.01-.34-.03-.42-.12-.08-.08-.1-.23-.05-.42,.06-.3,.14-.62,.25-.95,.1-.34,.22-.66,.33-.94,.11-.29,.21-.51,.29-.68,.13-.24,.29-.41,.45-.52,.17-.11,.39-.18,.67-.23,.32-.04,.88-.08,1.67-.1,.8-.02,1.89-.03,3.27-.03s2.46,.01,3.26,.03c.8,.02,1.36,.05,1.69,.1,.28,.04,.49,.11,.66,.23,.16,.11,.31,.29,.44,.52,.09,.15,.19,.38,.31,.67,.1,.3,.21,.61,.31,.95,.1,.34,.19,.66,.27,.95,.05,.19,.03,.34-.05,.42-.08,.09-.23,.13-.43,.12-.46-.03-.98-.05-1.56-.08Zm2.78,5.99c-.29,.29-.65,.44-1.08,.44s-.78-.15-1.07-.44-.43-.66-.43-1.08,.14-.79,.43-1.08,.65-.43,1.07-.43,.79,.14,1.08,.43,.43,.65,.43,1.08-.14,.79-.43,1.08Z"/><path class="cls-1" d="M22.24,6.85s-.08-.1-.09-.17c-.05-.33-.1-.62-.15-.86-.05-.24-.12-.45-.19-.62s-.17-.31-.28-.42-.25-.21-.42-.28c-.17-.07-.37-.13-.61-.18-.24-.05-.52-.1-.84-.14-.07,0-.13-.04-.18-.08-.04-.05-.07-.11-.07-.17s.02-.13,.07-.17c.05-.05,.1-.08,.17-.09,.39-.04,.72-.09,.99-.15,.27-.06,.49-.14,.66-.24,.17-.1,.31-.24,.42-.42,.11-.18,.19-.4,.26-.67,.06-.27,.12-.61,.18-1.01,.01-.07,.04-.13,.09-.17s.1-.06,.17-.06,.12,.02,.17,.06c.05,.04,.08,.1,.09,.17,.06,.4,.12,.74,.18,1.01,.07,.27,.15,.5,.26,.67,.11,.18,.25,.31,.42,.42,.17,.1,.39,.19,.66,.24,.27,.06,.6,.11,.99,.15,.07,.01,.13,.04,.17,.09,.05,.05,.07,.11,.07,.17s-.02,.13-.07,.17c-.05,.05-.11,.08-.18,.08-.39,.04-.72,.1-.98,.15s-.49,.14-.66,.25c-.17,.1-.31,.24-.42,.42-.1,.18-.19,.4-.26,.67-.06,.27-.12,.61-.18,1.01-.01,.07-.04,.13-.09,.17-.05,.04-.1,.06-.17,.06s-.12-.02-.17-.06Z"/></svg>