<?xml version="1.0" encoding="UTF-8"?>
<svg width="60px" height="59px" viewBox="0 0 60 59" version="1.1" xmlns="http://www.w3.org/2000/svg" xmlns:xlink="http://www.w3.org/1999/xlink">
    <title>Path Copy</title>
    <g id="Test-Flight" stroke="none" stroke-width="1" fill="none" fill-rule="evenodd">
        <g id="설정-copy-8" transform="translate(-158.000000, -165.000000)" fill="#A0A0A0" fill-rule="nonzero">
            <g id="Group" transform="translate(136.000000, 143.000000)">
                <path d="M50.2059801,80.4060403 C50.2059801,80.4060403 49.4086379,79.4161074 49.3089701,78.7231544 C48.8106312,75.4563758 48.3122924,72.5855705 47.8139535,70.2097315 C47.3156146,67.8338926 46.6179402,65.7550336 45.9202658,64.0721477 C45.2225914,62.3892617 44.2259136,61.0033557 43.1295681,59.9144295 C42.0332226,58.8255034 40.6378738,57.8355705 38.9435216,57.1426174 C37.2491694,56.4496644 35.255814,55.8557047 32.8637874,55.3607383 C30.4717608,54.8657718 27.6810631,54.3708054 24.4916944,53.9748322 C23.7940199,53.9748322 23.1960133,53.5788591 22.6976744,53.1828859 C22.2990033,52.6879195 22,52.0939597 22,51.5 C22,50.9060403 22.1993355,50.2130872 22.6976744,49.8171141 C23.1960133,49.3221477 23.6943522,49.0251678 24.3920266,48.9261745 C28.2790698,48.5302013 31.5681063,48.0352349 34.2591362,47.4412752 C36.9501661,46.8473154 39.1428571,46.0553691 40.8372093,45.0654362 C42.5315615,44.0755034 43.9269103,42.6895973 45.0232558,40.9077181 C46.1196013,39.1258389 46.9169435,36.9479866 47.6146179,34.2751678 C48.2126246,31.602349 48.8106312,28.2365772 49.4086379,24.2768456 C49.5083056,23.5838926 49.807309,22.9899329 50.3056478,22.5939597 C50.8039867,22.1979866 51.3023256,22 52,22 C52.6976744,22 53.1960133,22.1979866 53.6943522,22.5939597 C54.192691,22.9899329 54.4916944,23.5838926 54.5913621,24.2768456 C55.1893688,28.2365772 55.7873754,31.602349 56.3853821,34.2751678 C57.0830565,36.9479866 57.8803987,39.2248322 58.9767442,40.9077181 C60.0730897,42.6895973 61.4684385,43.9765101 63.1627907,45.0654362 C64.8571429,46.0553691 67.0498339,46.9463087 69.7408638,47.4412752 C72.4318937,48.0352349 75.7209302,48.5302013 79.6079734,48.9261745 C80.3056478,49.0251678 80.9036545,49.3221477 81.3023256,49.8171141 C81.8006645,50.3120805 82,50.9060403 82,51.5 C82,52.0939597 81.8006645,52.7869128 81.3023256,53.1828859 C80.8039867,53.6778523 80.2059801,53.9748322 79.5083056,53.9748322 C75.6212625,54.3708054 72.3322259,54.9647651 69.7408638,55.4597315 C67.1495017,55.954698 64.8571429,56.8456376 63.1627907,57.9345638 C61.4684385,58.9244966 60.0730897,60.3104027 58.9767442,62.0922819 C57.9800664,63.8741611 57.0830565,66.0520134 56.3853821,68.7248322 C55.7873754,71.397651 55.1893688,74.7634228 54.5913621,78.7231544 C54.4916944,79.4161074 54.192691,80.0100671 53.6943522,80.4060403 C53.1960133,80.8020134 52.6976744,81 52,81 C51.3023256,81 50.8039867,80.8020134 50.3056478,80.4060403 L50.2059801,80.4060403 Z" id="Path-Copy" transform="translate(52.000000, 51.500000) scale(1, -1) translate(-52.000000, -51.500000) "></path>
            </g>
        </g>
    </g>
</svg>